<?xml version="1.0" encoding="UTF-8"?>
<svg viewBox="0 0 48 48" xmlns="http://www.w3.org/2000/svg" xmlns:xlink="http://www.w3.org/1999/xlink">
 <defs>
  <linearGradient id="c" x1="292.97" x2="296.94" y1="4.7593" y2="10.711" gradientUnits="userSpaceOnUse">
   <stop stop-color="#eeeeec" offset="0"/>
   <stop stop-color="#fff" offset="1"/>
  </linearGradient>
  <linearGradient id="p" x1="22.225" x2="24.19" y1="23.843" y2="22.861" gradientUnits="userSpaceOnUse">
   <stop stop-color="#babdb6" offset="0"/>
   <stop stop-color="#eeeeec" offset="1"/>
  </linearGradient>
  <linearGradient id="j" x1="39.62" x2="-3.5325" y1="44.541" y2="-11.889" gradientTransform="matrix(1.1619 0 0 .9925 -5.1121 .064005)" gradientUnits="userSpaceOnUse">
   <stop stop-color="#ef3535" offset="0"/>
   <stop stop-color="#a40000" stop-opacity="0" offset="1"/>
  </linearGradient>
  <linearGradient id="b" x1="20.288" x2="24.326" y1="6.4604" y2="23.943" gradientUnits="userSpaceOnUse">
   <stop stop-color="#e2e2e2" offset="0"/>
   <stop stop-color="#d8d8d8" offset="1"/>
  </linearGradient>
  <linearGradient id="g" x1="298.48" x2="298.87" y1="13.6" y2="13.803" gradientUnits="userSpaceOnUse">
   <stop stop-color="#df2a2a" offset="0"/>
   <stop stop-color="#df2a2a" stop-opacity="0" offset="1"/>
  </linearGradient>
  <linearGradient id="f" x1="298.48" x2="298.87" y1="13.6" y2="13.803" gradientUnits="userSpaceOnUse">
   <stop stop-color="#9a0c00" offset="0"/>
   <stop stop-color="#9a0c00" stop-opacity="0" offset="1"/>
  </linearGradient>
  <linearGradient id="o" x1="294.59" x2="297.19" y1="12.188" y2="13.34" gradientUnits="userSpaceOnUse" xlink:href="#a"/>
  <linearGradient id="n" x1="22.416" x2="26.172" y1="26.69" y2="22.828" gradientUnits="userSpaceOnUse" xlink:href="#a"/>
  <linearGradient id="m" x1="22.469" x2="22.625" y1="37.808" y2="18.269" gradientUnits="userSpaceOnUse" xlink:href="#a"/>
  <linearGradient id="l" x1="292.97" x2="296.94" y1="4.7593" y2="10.711" gradientTransform="matrix(-4.1278 0 0 4.1366 1244.5 -11.905)" gradientUnits="userSpaceOnUse" xlink:href="#c"/>
  <linearGradient id="k" x1="12.004" x2="28.089" y1="7.7823" y2="32.404" gradientUnits="userSpaceOnUse" xlink:href="#c"/>
  <linearGradient id="i" x1="13.825" x2="7.6701" y1="40.069" y2="2.3262" gradientTransform="matrix(1.1619 0 0 .9925 -2.667 .064005)" gradientUnits="userSpaceOnUse" xlink:href="#a"/>
  <linearGradient id="h" x1="7.1848" x2="25.152" y1="31.057" y2="50.775" gradientTransform="matrix(1.1619 0 0 .9925 -2.4308 .26576)" gradientUnits="userSpaceOnUse" xlink:href="#a"/>
  <radialGradient id="a" cx="165.06" cy="23.414" r="7.2848" gradientUnits="userSpaceOnUse">
   <stop stop-color="#ef3535" offset="0"/>
   <stop stop-color="#c91a1a" offset="0"/>
   <stop stop-color="#ff4c4c" offset="1"/>
  </radialGradient>
  <radialGradient id="d" cx="25.188" cy="41.625" r="18.062" gradientTransform="matrix(1 0 0 .32526 2.0296e-16 28.086)" gradientUnits="userSpaceOnUse">
   <stop offset="0"/>
   <stop stop-opacity="0" offset="1"/>
  </radialGradient>
  <radialGradient id="e" cx="34.376" cy="37.5" r="8.3888" gradientTransform="matrix(1 0 0 1.0604 0 -2.2995)" gradientUnits="userSpaceOnUse" xlink:href="#a"/>
 </defs>
 <path d="m34.174 1.625c0.21195 0.06854 0.41726 0.14466 0.62398 0.2175 0.65142 2.197 3.6715 4.4187 2.5231 6.6066-3.8258 6.3804-7.6243 12.845-11.422 19.276-0.74575 0.1469-1.498 0.22691-2.2518 0.24469-1.5864 0.04021-3.2149-0.19449-4.7206-0.73407 5.0509-8.5513 10.104-17.121 15.247-25.611z" fill="url(#l)" stroke="#888a85" stroke-linecap="round" stroke-linejoin="round"/>
 <path d="m34.289 4.25c-0.23112 0.30745-0.44962 0.87094-0.68603 1.1562-4.0468 6.7527-8.162 13.494-12.224 20.219-0.06055 0.25312-0.81393 1.0123-0.01204 0.94296 1.1116 0.19788 2.2718 0.3506 3.3798 0.05704 3.759-6.2172 7.4459-12.482 11.196-18.702 0.34247-0.38727 0.40911-0.92526 0.04936-1.312-0.53002-0.81661-1.0669-1.6747-1.61-2.455l-0.07056 0.07071-0.02299 0.02304z" fill="url(#b)"/>
 <path transform="matrix(3.6379 0 0 3.4704 -1056.1 -16.007)" d="m297.04 12.3-0.64502 1.0845-1.2666 1.334-0.40039-1.0459 1.0142-1.7124 1.2978 0.33984z" fill="url(#o)" stroke="#9a0c00" stroke-linecap="round" stroke-linejoin="round" stroke-width=".28144"/>
 <path d="m20.406 26.969c-1.2224 0.48672-1.214 2.0352-1.925 2.964-0.34232 0.71579-0.94379 1.3462-1.2 2.0985-0.00968 0.51539 0.44795 1.3602 1.0312 0.90625 1.385-1.1463 2.5644-2.5387 3.4442-4.1269 0.23236-0.49003 0.79575-0.89416 0.86828-1.4044-0.53857-0.57081-1.5128-0.53302-2.2188-0.4375z" fill="url(#m)"/>
 <path d="m12.96 1.625c-0.20813 0.06854-0.40974 0.14466-0.61275 0.2175-0.63968 2.197-3.6054 4.4187-2.4776 6.6066 3.757 6.3804 7.487 12.845 11.216 19.276 0.73232 0.1469 1.471 0.22691 2.2112 0.24469 1.5578 0.04021 3.157-0.19449 4.6356-0.73407-4.9599-8.5513-9.9219-17.121-14.972-25.611z" fill="url(#k)" stroke="#888a85" stroke-linecap="round" stroke-linejoin="round"/>
 <path d="m12.72 4.25c-0.38303 1.1267-1.4497 1.956-1.7148 3.1562 3.7085 6.3941 7.4709 12.769 11.177 19.156 1.1984 0.2583 2.4284 0.09316 3.6134-0.15625-0.18877-0.74044-0.7382-1.3309-1.03-2.0296-3.8946-6.5705-7.8237-13.134-11.678-19.72-0.01466-0.15161-0.2167-0.48413-0.36746-0.40625z" fill="url(#b)"/>
 <path transform="matrix(.97989 0 0 1 .31138 .17404)" d="m24.19 23.843a0.98253 0.98253 0 1 1 -1.965 0 0.98253 0.98253 0 1 1 1.965 0z" fill="url(#p)"/>
 <path transform="matrix(1.2561 0 0 .81915 -7.1994 9.0904)" d="m43.25 41.625a18.062 5.875 0 1 1 -36.125 0 18.062 5.875 0 1 1 36.125 0z" fill="url(#d)" fill-rule="evenodd" opacity=".26705"/>
 <path d="m17.7 30.287c3.235 1.7266 3.4958 6.6129 0.57795 10.914s-7.9045 6.3952-11.141 4.6761c-3.2365-1.7266-3.4958-6.6104-0.57795-10.912s7.9045-6.3926 11.141-4.6787zm-1.8551 2.7422c-1.4365-0.76363-4.5075 0.54052-6.4663 3.434s-1.8229 5.9135-0.38772 6.6748c1.4352 0.76823 4.5088-0.54052 6.4677-3.434s1.8229-5.9112 0.3864-6.6748z" fill="url(#h)" stroke="#a40000"/>
 <path d="m14.326 30.583c-1.9251 0.38722-3.6345 1.454-5.0469 2.4812-0.75176 0.6949-1.2436 1.4499-1.9156 2.2542-1.7083 2.3521-2.4242 5.4434-1.0728 8.0697 0.61945 1.4531 2.6426 2.0474 4.3682 1.6791 1.4519-0.24846 2.6813-1.1611 3.8124-1.7989 0.9209-0.79078 1.554-1.6265 2.3329-2.5913 1.8094-2.4744 2.7919-5.7487 1.298-8.5123-0.72371-1.1421-2.2346-1.7468-3.7761-1.5818zm0.47201 0.96148c2.0165 0.25035 3.357 2.0328 3.1226 3.7219 0.02077 2.2869-1.146 4.4441-2.7232 6.2341-1.4172 1.402-3.3486 2.7283-5.6642 2.6363-1.3588-0.00287-2.4326-0.9123-2.8158-1.9605-0.61664-2.5319 0.19472-5.2652 1.9662-7.338 1.3582-1.5233 3.1948-2.8871 5.4675-3.2417 0.21569-0.01527 0.43088-0.04249 0.64687-0.05216z" fill="url(#i)"/>
 <path d="m30.332 30.287c-3.235 1.7266-3.4958 6.6129-0.57794 10.914s7.9045 6.3952 11.141 4.6761c3.2365-1.7266 3.4958-6.6104 0.57794-10.912s-7.9045-6.3926-11.141-4.6787zm1.8551 2.7422c1.4365-0.76363 4.5075 0.54052 6.4663 3.434s1.8229 5.9135 0.38773 6.6748c-1.4352 0.76823-4.5088-0.54052-6.4677-3.434s-1.8229-5.9112-0.3864-6.6748z" fill="url(#e)" stroke="#a40000"/>
 <path transform="matrix(3.6244 0 0 3.6244 -1053.2 -16.847)" d="m296.96 12.3 0.64405 1.0845 1.2671 1.334 0.40088-1.0459-1.0142-1.7124-1.2979 0.33984z" fill="url(#g)" stroke="url(#f)" stroke-linecap="round" stroke-linejoin="round" stroke-width=".2759"/>
 <path d="m26.15625,27.9375c-.42675.19882-1.01681.20148-1.34375.5 .95002,1.40139 1.88991,2.91466 2.85088,4.21258 .66855.75454 1.35581,1.50023 2.11787,2.16242 .73528-1.39142.13516-3.06121-.8125-4.1875-.60253-.89969-.82982-2.11296-1.84375-2.59375-.30405-.11841-.65061-.17788-.96875-.09375z" fill="url(#n)"/>
 <path d="m32.28 30.449c-1.5204 0.22975-2.895 1.0856-3.2404 2.388-1.1311 2.3954-0.21488 5.1135 1.2798 7.2268 1.1019 1.3452 1.9401 2.9299 3.6396 3.774 1.4706 0.92362 3.3411 1.8906 5.2176 1.3009 1.5133-0.43345 2.3707-1.6806 2.6802-2.9718 0.60443-2.31-0.2957-4.676-1.707-6.6365-0.65867-0.91371-1.333-1.8832-2.1133-2.6946-1.1946-0.90345-2.6379-1.6515-4.0888-2.2324-0.5341-0.11041-1.1152-0.23274-1.6676-0.15434zm0.4357 1.2096c1.7573-0.06678 3.2345 0.73946 4.3764 1.769 1.0323 0.96913 2.0216 1.8052 2.6625 2.9989 1.0772 1.8206 1.3879 3.98 0.8401 5.9635-0.52838 1.3245-2.2262 1.972-3.7911 1.6164-1.9819-0.22883-3.2173-1.671-4.5266-2.8084-1.5058-1.4314-2.4406-3.4786-2.5106-5.4824 0.01411-1.0177-0.02647-2.1784 0.69814-3.0336 0.41227-0.54315 1.38-1.0543 2.2511-1.0235z" fill="url(#j)"/>
</svg>