<?xml version="1.0" encoding="UTF-8"?>
<svg enable-background="new 0 0 107.416 136.009" viewBox="0 0 107.416 136.009" xmlns="http://www.w3.org/2000/svg">
 <path d="m103.364,70.862c0,17.492 1.354,35.026 2.986,52.438 1.077,11.449-9.533,11.378-17.641,11.378h-70.425c-10.304,0-17.572-3.719-16.468-14.791 2.111-21.208 2.698-42.602 1.81-63.894-.413-9.973-1.089-19.933-1.963-29.873-.508-5.768-2.054-11.725 2.024-16.674 5.591-6.787 20.885-5.258 28.733-5.828l31.918-2.315c7.889-.572 12.06,1.861 18.599,6.813 7.138,5.405 21.452,15.054 23.442,24.551 .581,2.769-1.017,6.928-1.361,9.683-1.18,9.45-1.654,18.992-1.654,28.512" fill="#fff"/>
 <path d="m12.903,4.017c-18.435-.006-11.932,24.844-11.196,35.632 1.611,23.661 1.707,47.332-.105,70.984-.9,11.771-3.336,25.059 13.619,25.059h26.763 39.762c6.703,0 19.252,2.044 23.727-4.242 2.963-4.162 1.765-9.427 1.365-14.116-.825-9.673-1.517-19.358-1.98-29.055-.856-17.891-.955-36.197 2.406-53.864 1.456-7.649-12.598-17.833-17.459-21.948-5.733-4.859-13.804-13.025-21.931-12.437l-54.971,3.987m-10.552,120.317c3.34-16.032 2.696-34.099 2.696-50.347 0-18.733-1.162-37.558-3.153-56.184-1.373-12.843 14.652-12.018 22.994-12.623l38.404-2.785c9.825-.712 14.834,2.88 22.663,9.336 6.025,4.973 20.606,14.843 19.037,23.879-3.314,19.064-2.98,38.628-1.896,57.875 .479,8.507 1.108,17.008 1.848,25.498 .451,5.193 1.449,11.74-4.766,13.979-4.647,1.676-11.105.701-15.906.701h-32.4-30.107c-7.042,0-19.414.673-19.414-9.329" fill="#737373"/>
 <path d="m96.216,71.548c0,15.745 3.492,32.133 2.623,47.755 0,11.791-14.245,9.237-22.188,9.237h-39.811c-7.172,0-22.119,2.45-26.297-5.213-2.107-3.865-.383-9.886-.064-13.963 .912-11.651 1.368-23.341 1.368-35.027 0-11.417-.486-22.835-1.193-34.229-.357-5.744-2.077-12.681-.983-18.425 2.198-11.56 19.569-9.596 28.348-10.283l19.368-1.519c1.902-.151 8.866-1.893 10.545-.829 1.81,0 2.909,17.572 3.56,19.592 2.722,8.433 10.092,6.877 17.566,7.239 4.452.216 10.204-.769 9.331,4.646-1.647,10.231-2.173,20.67-2.173,31.019" fill="#f4f2f2"/>
 <path d="m68.272,5.029c-.822,5.697-1.486,11.421-1.957,17.158-.38,4.642-2.701,16.41 1.112,20.224 8.04,8.04 28.983-3.645 36.874-7.78-8.691,1.348-20.479,3.727-28.868.27-6.818-2.81-6.379-23.374-7.161-29.872" fill="#adadad"/>
</svg>